<?xml version="1.0" standalone="no"?><!DOCTYPE svg PUBLIC "-//W3C//DTD SVG 1.1//EN" "http://www.w3.org/Graphics/SVG/1.1/DTD/svg11.dtd"><svg t="1609923178247" class="icon" viewBox="0 0 1024 1024" version="1.1" xmlns="http://www.w3.org/2000/svg" p-id="25829" xmlns:xlink="http://www.w3.org/1999/xlink" width="200" height="200"><defs><style type="text/css">@font-face { font-family: rbicon; src: url("chrome-extension://dipiagiiohfljcicegpgffpbnjmgjcnf/fonts/rbicon.woff2") format("woff2"); font-weight: normal; font-style: normal; }
</style></defs><path d="M512 0c-281.6 0-512 228.072727-512 512s228.072727 512 512 512c281.6 0 512-228.072727 512-512s-230.4-512-512-512z" fill="#d81e06" p-id="25830" data-spm-anchor-id="a313x.7781069.0.i12" class="selected"></path><path d="M512 470.109091l-172.218182-172.218182c-11.636364-11.636364-30.254545-11.636364-41.890909 0s-11.636364 30.254545 0 41.890909l172.218182 172.218182-172.218182 172.218182c-11.636364 11.636364-11.636364 30.254545 0 41.890909s30.254545 11.636364 41.890909 0l172.218182-172.218182 172.218182 172.218182c11.636364 11.636364 30.254545 11.636364 41.890909 0s11.636364-30.254545 0-41.890909l-172.218182-172.218182 172.218182-172.218182c11.636364-11.636364 11.636364-30.254545 0-41.890909s-30.254545-11.636364-41.890909 0l-172.218182 172.218182z" fill="#FFFFFF" p-id="25831"></path></svg>